<?xml version="1.0" encoding="UTF-8"?>
<svg id="Camada_1" data-name="Camada 1" xmlns="http://www.w3.org/2000/svg" viewBox="0 0 600 600">
  <defs>
    <style>
      .cls-1 {
        fill: #fff;
        fill-rule: evenodd;
      }
    </style>
  </defs>
  <path class="cls-1" d="M128.61,490.2s-.08-.03-.1-.07q-.04-.08,1.09-1.45s0,0,0,0c12.34-15.17,120.12-148.75,104.46-167.53C218.85,302.89,2.19,300.29,0,300.27c-.07,0-.12-.06-.12-.12s.05-.12.12-.12c2.23-.03,223.62-2.77,265.64-20.49,60.27-25.41,176.09-168.24,177.26-169.68.03-.03.06-.05.1-.05.03,0,.05,0,.08.03.05.04.06.12.02.18-1.11,1.39-110.67,139.48-107.56,165.96.18,1.52.73,2.65,1.64,3.36,25.63,20.11,236.36,20.69,260.3,20.69h2.53c.07,0,.12.05.12.12s-.05.13-.12.13c-2.58.03-258.84,2.9-298.42,22.39-58.04,28.58-160.32,152.18-171.79,166.18,0,0-1.08,1.32-1.08,1.32-.02.03-.06.05-.1.05,0,0,0,0-.02,0Z"/>
  <path d="M442.99,109.93s-123.71,155.53-105.9,169.5c25.62,20.1,234.92,20.71,260.38,20.71,1.65,0,2.53,0,2.53,0,0,0-258.41,2.68-298.47,22.4-58.16,28.64-160.58,152.47-171.88,166.28,11.73-14.42,120.28-148.85,104.52-167.76C218.73,302.56,0,300.14,0,300.14c0,0,223.16-2.57,265.69-20.5,61-25.72,177.31-169.71,177.31-169.71M600,300.14h0M129.64,488.82c-.67.82-1.02,1.25-1.02,1.25h0s.35-.43,1.02-1.25M442.99,109.68c-.07,0-.15.03-.19.09-.29.36-29.49,36.44-65.77,75.2-33.47,35.76-79.97,81.17-111.44,94.44C223.59,297.12,2.23,299.87,0,299.89c-.14,0-.25.11-.25.25s.11.25.25.25c2.19.02,218.79,2.63,233.97,20.83,6.44,7.72-8.07,37.2-41.96,85.26-26.64,37.78-56.79,75.09-62.56,82.18h0c-.67.82-1.02,1.25-1.02,1.25-.06.07-.07.18-.03.26.04.09.13.14.23.14q.12,0,1.22-1.34s0,0,0,0c11.48-14.01,113.73-137.62,171.8-166.21,39.55-19.47,295.78-22.35,298.37-22.38,0,0,.02,0,.03,0h0s0,0,0,0c0,0,0,0,0,0,0,0,0,0,0,0,.12-.02.22-.12.22-.25,0-.14-.11-.25-.25-.25h0s-.87,0-2.53,0c-23.94,0-234.62-.58-260.22-20.66-.88-.69-1.42-1.8-1.59-3.28-3.1-26.43,106.43-164.48,107.53-165.87.09-.11.07-.26-.04-.35-.05-.04-.1-.05-.16-.05h0ZM442.99,110.18h0,0ZM129.64,489.07h0,0Z"/>
</svg>